<svg width="1190" height="1133" viewBox="0 0 1190 1133" fill="none" xmlns="http://www.w3.org/2000/svg">
<path d="M578.503 9.07171C586.447 -2.51974 603.553 -2.51971 611.497 9.07173L816.336 307.956C818.937 311.751 822.766 314.533 827.179 315.834L1174.73 418.287C1188.21 422.26 1193.5 438.529 1184.93 449.667L963.972 736.84C961.167 740.486 959.704 744.988 959.831 749.586L969.792 1111.79C970.179 1125.84 956.339 1135.89 943.099 1131.18L601.701 1009.78C597.367 1008.24 592.633 1008.24 588.299 1009.78L246.901 1131.18C233.661 1135.89 219.821 1125.84 220.208 1111.79L230.169 749.586C230.296 744.988 228.833 740.486 226.028 736.84L5.07048 449.667C-3.49877 438.529 1.78747 422.26 15.2665 418.287L362.821 315.834C367.234 314.533 371.063 311.751 373.664 307.956L578.503 9.07171Z" fill="white" fill-opacity="0.09"/>
</svg>
